Coordinates
version=1
nRows=16
nColumns=42
inDegrees=yes

Units are S.I. units (second, meters, Newtons, ...)
If the header above contains a line with 'inDegrees', this indicates whether rotational values are in degrees (yes) or radians (no).

endheader
time	pelvis_tilt	pelvis_list	pelvis_rotation	pelvis_tx	pelvis_ty	pelvis_tz	hip_flexion_r	hip_adduction_r	hip_rotation_r	knee_angle_r	knee_adduction_r	knee_angle_r_beta	ankle_angle_r	subtalar_angle_r	mtp_angle_r	hip_flexion_l	hip_adduction_l	hip_rotation_l	knee_angle_l	knee_adduction_l	knee_angle_l_beta	ankle_angle_l	subtalar_angle_l	mtp_angle_l	lumbar_extension	lumbar_bending	lumbar_rotation	arm_flex_r	arm_add_r	arm_rot_r	elbow_flex_r	pro_sup_r	wrist_flex_r	wrist_dev_r	arm_flex_l	arm_add_l	arm_rot_l	elbow_flex_l	pro_sup_l	wrist_flex_l	wrist_dev_l
      1.32000000	     13.17318080	     -3.63729158	      4.03905105	      0.28837660	      0.84871905	     -0.16282127	      7.44083114	      5.37724668	    -17.96370052	     23.57993346	     -2.68703444	      0.41154748	     12.06037495	    -11.95238922	     -7.51636302	    -21.92790787	     -6.15560392	     -4.07520265	     44.48688641	      2.18561874	      0.77644264	     -8.08695641	    -18.47148274	     -7.51636302	    -26.24158756	      4.51799724	      2.34573187	     -6.20023955	     -6.23051943	    -10.58463737	     26.53720092	     90.00000001	      0.00000000	      0.00000000	     19.77089178	     -7.30674534	      5.75995189	     42.66622854	     90.00000001	      0.00000000	      0.00000000
      1.33000000	     13.54926449	     -3.54717821	      3.58029745	      0.29953874	      0.85056417	     -0.16106366	      6.18602296	      5.53244502	    -17.82434924	     23.59834999	     -2.80194648	      0.41186891	     12.52700138	    -11.46828404	     -7.51613488	    -21.02456518	     -6.09674773	     -3.97513843	     47.04063077	      2.00449106	      0.82101389	     -8.09926303	    -18.74424980	     -7.51613488	    -26.75208452	      4.22685066	      2.79018522	     -5.22943753	     -6.35374424	    -10.47679736	     26.76050569	     90.00000001	      0.00000000	      0.00000000	     19.00910986	     -7.29447244	      5.69057246	     41.81066885	     90.00000001	      0.00000000	      0.00000000
      1.34000000	     13.33257251	     -3.82745370	      3.55422088	      0.31063126	      0.85144598	     -0.15973193	      5.42963984	      6.08639384	    -17.89293702	     23.13790013	     -2.87766636	      0.40383254	     13.53702814	    -10.66923035	     -7.51570592	    -18.96266511	     -6.67797358	     -4.72914299	     50.24648316	      1.02844891	      0.87696657	     -7.57362093	    -18.86741966	     -7.51570592	    -26.49123371	      4.47298584	      2.89140094	     -4.20682735	     -6.53263456	    -10.27086556	     26.77938643	     90.00000001	      0.00000000	      0.00000000	     18.27481347	     -7.15752180	      5.49560361	     40.16482251	     90.00000001	      0.00000000	      0.00000000
      1.35000000	     13.75552915	     -3.60227083	      3.09567062	      0.32141813	      0.85338668	     -0.15800330	      4.11024571	      6.06997786	    -17.88948455	     23.11631814	     -3.07305540	      0.40345586	     13.89504538	    -10.16245548	     -7.51549238	    -17.97955177	     -6.47722529	     -5.04258190	     52.46727022	      0.49758651	      0.91572661	     -6.62231309	    -19.04004037	     -7.51549238	    -27.08764548	      4.00187776	      3.30743834	     -3.12925551	     -6.63317076	    -10.14462172	     27.11577048	     90.00000001	      0.00000000	      0.00000000	     17.50359935	     -7.19538251	      5.38735441	     39.41140058	     90.00000001	      0.00000000	      0.00000000
      1.36000000	     13.67025439	     -3.73522660	      3.12029425	      0.33222019	      0.85443312	     -0.15691186	      3.17562216	      6.39795986	    -17.94737083	     22.62899793	     -3.01229127	      0.39495052	     14.92618656	     -9.32712516	     -7.51509680	    -15.98003499	     -6.84011008	     -6.52814888	     55.06805880	     -1.29306854	      0.96111894	     -4.60101895	    -19.05826320	     -7.51509680	    -27.01430729	      4.09894393	      3.34865235	     -2.03986466	     -6.77247539	     -9.87534458	     27.24118388	     90.00000001	      0.00000000	      0.00000000	     16.76732800	     -7.07076081	      5.11855059	     37.86504474	     90.00000001	      0.00000000	      0.00000000
      1.37000000	     13.73759987	     -3.74418949	      2.76750590	      0.34281362	      0.85570198	     -0.15537550	      2.24421788	      6.63258773	    -17.88266559	     22.48474232	     -3.21305470	      0.39243278	     15.55714296	     -8.57805390	     -7.51447917	    -14.28779659	     -7.00451524	     -8.23124274	     57.18260702	     -2.91467799	      0.99802477	     -2.82291107	    -19.05906026	     -7.51447917	    -27.17003793	      3.90903714	      3.73263596	     -0.94242035	     -6.94740545	     -9.48619962	     27.51721438	     90.00000001	      0.00000000	      0.00000000	     16.04058704	     -6.86754704	      4.45211655	     36.61118471	     90.00000001	      0.00000000	      0.00000000
      1.38000000	     14.06933828	     -3.42519460	      2.70526239	      0.35327932	      0.85754672	     -0.15442598	      0.83108832	      6.40322727	    -17.73792176	     22.11005069	     -3.05966851	      0.38589318	     16.11926692	     -8.16998216	     -7.51420383	    -12.90773551	     -6.71661129	     -9.08348147	     58.72167971	     -4.30039044	      1.02488665	     -0.89254068	    -19.13015844	     -7.51420383	    -27.62937248	      3.49049303	      3.72582244	      0.21636727	     -7.01791340	     -9.27150090	     27.89323270	     90.00000001	      0.00000000	      0.00000000	     15.26004636	     -6.90074508	      4.31571859	     35.66088858	     90.00000001	      0.00000000	      0.00000000
      1.39000000	     14.24877700	     -3.33066785	      2.29617094	      0.36374003	      0.85904372	     -0.15292544	     -0.37665773	      6.50154737	    -17.19331346	     21.70113753	     -3.04795301	      0.37875630	     16.69249821	     -7.85503029	     -7.51356178	    -11.35936766	     -6.74796488	    -11.12098716	     60.03404074	     -6.10648604	      1.04779167	      0.95573065	    -19.10608592	     -7.51356178	    -27.90105692	      3.15674569	      4.11894023	      1.33620033	     -7.17938324	     -8.67994593	     28.23345588	     90.00000001	      0.00000000	      0.00000000	     14.53421392	     -6.72595582	      3.57015156	     34.41180957	     90.00000001	      0.00000000	      0.00000000
      1.40000000	     14.49537745	     -2.99333591	      2.18163433	      0.37402486	      0.86071141	     -0.15201433	     -1.72378980	      6.23343837	    -16.91718612	     21.22524700	     -2.87233245	      0.37045044	     17.20633185	     -7.62225390	     -7.51326183	     -9.87458290	     -6.39397807	    -11.89092429	     60.95186562	     -7.26894166	      1.06381074	      2.88268193	    -19.10975639	     -7.51326183	    -28.24690973	      2.69492691	      4.12308730	      2.51499619	     -7.24089316	     -8.37783201	     28.65685163	     90.00000001	      0.00000000	      0.00000000	     13.69851504	     -6.75360507	      3.36684831	     33.48850295	     90.00000001	      0.00000000	      0.00000000
      1.41000000	     14.68933746	     -2.67577134	      1.98812102	      0.38404500	      0.86219858	     -0.15107820	     -2.97150360	      6.01281794	    -16.54021087	     20.76904487	     -2.80286744	      0.36248822	     17.64567189	     -7.34983976	     -7.51302143	     -8.32309683	     -6.03314102	    -12.60076994	     61.62807225	     -8.22876060	      1.07561277	      4.58746731	    -19.10731161	     -7.51302143	    -28.56116067	      2.23319843	      4.21859510	      3.70756642	     -7.31843077	     -8.06637654	     29.14449313	     90.00000001	      0.00000000	      0.00000000	     12.88086225	     -6.75241095	      3.15812120	     32.63811003	     90.00000001	      0.00000000	      0.00000000
      1.42000000	     14.80086383	     -2.40044724	      1.70721075	      0.39414789	      0.86347632	     -0.15003475	     -4.15316351	      5.82139515	    -16.10247243	     20.24398025	     -2.71456790	      0.35332411	     18.12218075	     -7.11602716	     -7.51277805	     -6.73328240	     -5.71978064	    -13.28954243	     61.96793921	     -8.95995444	      1.08154457	      6.20473005	    -19.08137350	     -7.51277805	    -28.74857232	      1.77287370	      4.40331043	      4.85110215	     -7.41475404	     -7.65769249	     29.65902744	     90.00000001	      0.00000000	      0.00000000	     12.01702733	     -6.70609027	      2.84087040	     31.75677993	     90.00000001	      0.00000000	      0.00000000
      1.43000000	     14.88949623	     -2.17949274	      1.31206376	      0.40415561	      0.86456320	     -0.14875705	     -5.17565686	      5.64298126	    -16.03091522	     19.95626659	     -2.76464500	      0.34830256	     18.33574975	     -6.88351002	     -7.51261277	     -5.18138278	     -5.48933979	    -13.58457211	     62.08985136	     -9.08167259	      1.08367234	      7.12126844	    -19.11743791	     -7.51261277	    -28.91351027	      1.30636782	      4.71923571	      5.97328074	     -7.47894905	     -7.41224908	     30.27625761	     90.00000001	      0.00000000	      0.00000000	     11.04280084	     -6.75082248	      2.65743592	     31.17008339	     90.00000001	      0.00000000	      0.00000000
      1.44000000	     15.02077374	     -2.05005464	      0.86567029	      0.41431773	      0.86566518	     -0.14793193	     -6.62603059	      5.61417601	    -14.68798837	     18.91394750	     -2.47903623	      0.33011066	     18.77875900	     -7.17522341	     -7.51177528	     -3.79402610	     -5.22062792	    -14.08881537	     61.67389190	     -9.38719312	      1.07641248	      8.74631324	    -18.96015017	     -7.51177528	    -29.06825100	      0.98116112	      5.07265918	      6.90404672	     -7.97446856	     -5.40962415	     31.12203706	     90.00000001	      0.00000000	      0.00000000	     10.35395366	     -6.18612101	      0.24846077	     29.79740515	     90.00000001	      0.00000000	      0.00000000
      1.45000000	     14.91785400	     -1.84703092	      0.57228820	      0.42422653	      0.86613020	     -0.14708795	     -7.48055417	      5.41828269	    -14.57612772	     18.48445271	     -2.44621304	      0.32261456	     19.26460036	     -6.89712384	     -7.51144560	     -2.08171614	     -4.93638925	    -13.70917483	     61.24155572	     -8.93106714	      1.06886679	      9.88953500	    -18.88813455	     -7.51144560	    -28.99089886	      0.61269197	      5.28732090	      7.96165102	     -8.07993114	     -5.09342695	     31.80891706	     90.00000001	      0.00000000	      0.00000000	      9.35930207	     -6.12897191	     -0.14617996	     29.23012999	     90.00000001	      0.00000000	      0.00000000
      1.46000000	     14.82902857	     -1.69986362	      0.26195408	      0.43426511	      0.86642673	     -0.14624289	     -8.38237303	      5.29823166	    -14.50525316	     17.97027064	     -2.45651186	      0.31364039	     19.77822485	     -6.45455226	     -7.51105660	     -0.50080427	     -4.70161890	    -12.93673620	     60.48245552	     -8.04508510	      1.05561799	     10.83976574	    -18.83385228	     -7.51105660	    -28.89505399	      0.29744506	      5.54499267	      8.91654298	     -8.25901554	     -4.45362916	     32.64930634	     90.00000001	      0.00000000	      0.00000000	      8.36631432	     -5.98598570	     -0.92142524	     28.63871340	     90.00000001	      0.00000000	      0.00000000
      1.47000000	     14.61247578	     -1.60338121	     -0.06512372	      0.44424509	      0.86628286	     -0.14540650	     -9.03118622	      5.25181093	    -14.67952782	     17.61455453	     -2.66038767	      0.30743197	     20.09750028	     -6.09553200	     -7.51085879	      1.20850915	     -4.53257983	    -12.51931595	     59.45398767	     -7.42164255	      1.03766784	     11.46201869	    -18.78555138	     -7.51085879	    -28.66261581	      0.02950803	      5.88154693	      9.84087589	     -8.38939765	     -4.14875439	     33.43445834	     90.00000001	      0.00000000	      0.00000000	      7.30012031	     -5.90614969	     -1.26322852	     28.28863448	     90.00000001	      0.00000000	      0.00000000
